<?xml version="1.0" encoding="iso-8859-1"?>
<!-- Generator: Adobe Illustrator 16.0.0, SVG Export Plug-In . SVG Version: 6.00 Build 0)  -->
<!DOCTYPE svg PUBLIC "-//W3C//DTD SVG 1.1//EN" "http://www.w3.org/Graphics/SVG/1.1/DTD/svg11.dtd">
<svg version="1.1" id="Capa_1" xmlns="http://www.w3.org/2000/svg" xmlns:xlink="http://www.w3.org/1999/xlink" x="0px" y="0px"
	 width="20px" height="20px" viewBox="0 0 41.601 46.943" style="enable-background:new 0 0 41.601 46.943;"
	 xml:space="preserve">
<path d="M23.118,24.854h0.239l17.772,5.856c0,0,1.299-3.445-0.414-4.601c-1.713-1.153-5.233-3.524-5.233-3.524l-5.23-3.521
	l-6.895-4.643h-0.07L22.894,3.511c0,0,0.089-3.511-2.497-3.511c-2.588,0-2.87,3.08-2.87,3.08l-0.521,11.791l-6.017,4.202
	l-5.24,3.666c0,0-3.024,1.729-4.825,3.368c-1.801,1.644-0.415,5.19-0.415,5.19l16.662-6.18l1.48,15.146
	c0,0.356,0.012,0.7,0.045,1.024l-5.417,3.703c0,0-1.418,1.952,0,1.952c1.416,0,12.69,0,13.828,0c1.136,0,0.008-1.78,0.008-1.78
	l-5.951-3.901c0.034-0.19,0.054-0.386,0.054-0.585L23.118,24.854z"/>
<g>
</g>
<g>
</g>
<g>
</g>
<g>
</g>
<g>
</g>
<g>
</g>
<g>
</g>
<g>
</g>
<g>
</g>
<g>
</g>
<g>
</g>
<g>
</g>
<g>
</g>
<g>
</g>
<g>
</g>
</svg>
